<?xml version="1.0" encoding="UTF-8"?>
<!DOCTYPE svg PUBLIC "-//W3C//DTD SVG 1.1//EN" "http://www.w3.org/Graphics/SVG/1.1/DTD/svg11.dtd">
<!-- Creator: CorelDRAW 2019 (64-Bit) -->
<svg xmlns="http://www.w3.org/2000/svg" xml:space="preserve" width="73px" height="73px" version="1.1" style="shape-rendering:geometricPrecision; text-rendering:geometricPrecision; image-rendering:optimizeQuality; fill-rule:evenodd; clip-rule:evenodd"
viewBox="0 0 73 73"
 xmlns:xlink="http://www.w3.org/1999/xlink"
 enable-background="new 0 0 512 512">
 <defs>
  <style type="text/css">
   <![CDATA[
    .fil0 {fill:#B68D73}
    .fil1 {fill:#FEFEFE;fill-rule:nonzero}
   ]]>
  </style>
 </defs>
 <g id="Слой_x0020_1">
  <metadata id="CorelCorpID_0Corel-Layer"/>
  <path class="fil0" d="M67.29 28.6c-0.25,-0.9 0.08,-2.32 0.39,-3.67 0.47,-2.03 1,-4.33 -0.08,-6.18 -1.09,-1.89 -3.37,-2.59 -5.38,-3.18 -1.31,-0.41 -2.69,-0.82 -3.32,-1.46 -0.64,-0.64 -1.07,-2.01 -1.46,-3.33 -0.61,-2.01 -1.29,-4.29 -3.18,-5.37 -0.74,-0.44 -1.6,-0.64 -2.61,-0.64 -1.16,0 -2.4,0.29 -3.56,0.55 -1.07,0.25 -2.08,0.48 -2.94,0.48 -0.29,0 -0.53,-0.03 -0.76,-0.09 -0.84,-0.22 -1.87,-1.19 -2.85,-2.11 -1.54,-1.46 -3.3,-3.1 -5.54,-3.1 -2.24,0 -3.98,1.64 -5.54,3.1 -0.98,0.92 -2.01,1.89 -2.85,2.11 -0.21,0.06 -0.47,0.09 -0.76,0.09 -0.84,0 -1.87,-0.23 -2.93,-0.48 -1.19,-0.26 -2.4,-0.55 -3.57,-0.55 -1.03,0 -1.87,0.2 -2.61,0.64 -1.89,1.08 -2.59,3.36 -3.18,5.37 -0.41,1.32 -0.82,2.69 -1.46,3.33 -0.63,0.64 -2.01,1.07 -3.32,1.46 -2.01,0.61 -4.29,1.29 -5.38,3.18 -1.08,1.87 -0.55,4.17 -0.08,6.18 0.31,1.35 0.64,2.77 0.39,3.67 -0.22,0.85 -1.19,1.87 -2.11,2.86 -1.46,1.54 -3.1,3.3 -3.1,5.54 0,2.24 1.64,3.98 3.1,5.54 0.92,0.99 1.89,2.01 2.11,2.86 0.25,0.9 -0.08,2.32 -0.39,3.67 -0.47,2.03 -1,4.33 0.08,6.18 1.09,1.89 3.37,2.59 5.38,3.18 1.31,0.41 2.69,0.82 3.32,1.46 0.64,0.64 1.07,2.01 1.46,3.33 0.61,2.01 1.29,4.29 3.18,5.37 0.74,0.43 1.6,0.64 2.61,0.64 1.17,0 2.4,-0.29 3.57,-0.55 1.06,-0.25 2.07,-0.48 2.93,-0.48 0.29,0 0.53,0.02 0.76,0.09 0.84,0.22 1.87,1.19 2.85,2.11 1.54,1.46 3.3,3.1 5.54,3.1 2.24,0 3.98,-1.64 5.54,-3.1 0.98,-0.92 2.01,-1.89 2.85,-2.11 0.21,-0.07 0.47,-0.09 0.76,-0.09 0.84,0 1.87,0.23 2.94,0.48 1.18,0.26 2.4,0.55 3.56,0.55 1.03,0 1.87,-0.21 2.61,-0.64 1.89,-1.08 2.59,-3.36 3.18,-5.37 0.41,-1.32 0.82,-2.69 1.46,-3.33 0.63,-0.64 2.01,-1.07 3.32,-1.46 2.01,-0.61 4.29,-1.29 5.38,-3.18 1.08,-1.87 0.55,-4.17 0.08,-6.18 -0.31,-1.35 -0.64,-2.77 -0.39,-3.67 0.22,-0.85 1.19,-1.87 2.11,-2.86 1.46,-1.54 3.1,-3.3 3.1,-5.54 0,-2.24 -1.64,-3.98 -3.1,-5.54 -0.92,-0.99 -1.89,-2.01 -2.11,-2.86z"/>
  <path class="fil1" d="M27.59 32.87c0,1.59 0.18,2.78 0.52,3.57 0.35,0.79 0.91,1.19 1.68,1.19 1.53,0 2.3,-1.59 2.3,-4.76 0,-3.15 -0.77,-4.72 -2.3,-4.72 -0.77,0 -1.33,0.39 -1.68,1.17 -0.34,0.78 -0.52,1.97 -0.52,3.55zm6.41 0c0,2.13 -0.35,3.73 -1.07,4.82 -0.71,1.09 -1.76,1.63 -3.14,1.63 -1.31,0 -2.32,-0.55 -3.04,-1.66 -0.73,-1.11 -1.09,-2.71 -1.09,-4.79 0,-2.12 0.35,-3.71 1.05,-4.78 0.69,-1.08 1.72,-1.61 3.08,-1.61 1.35,0 2.39,0.55 3.12,1.66 0.73,1.11 1.09,2.69 1.09,4.73zm5.91 8.21c0,1.6 0.17,2.79 0.52,3.58 0.34,0.79 0.91,1.18 1.69,1.18 0.79,0 1.36,-0.39 1.74,-1.17 0.37,-0.78 0.55,-1.97 0.55,-3.59 0,-1.6 -0.18,-2.78 -0.55,-3.55 -0.38,-0.77 -0.95,-1.16 -1.74,-1.16 -0.78,0 -1.35,0.39 -1.69,1.16 -0.35,0.77 -0.52,1.95 -0.52,3.55zm6.43 0c0,2.12 -0.36,3.72 -1.08,4.81 -0.71,1.09 -1.76,1.63 -3.14,1.63 -1.32,0 -2.34,-0.55 -3.06,-1.67 -0.71,-1.1 -1.07,-2.7 -1.07,-4.77 0,-2.12 0.35,-3.72 1.04,-4.79 0.7,-1.08 1.73,-1.61 3.09,-1.61 1.32,0 2.36,0.55 3.1,1.64 0.74,1.1 1.12,2.69 1.12,4.76zm-3.62 -14.32l-11.34 20.48 -2.06 0 11.34 -20.48 2.06 0z"/>
 </g>
</svg>
