<?xml version="1.0" encoding="UTF-8"?>
<!DOCTYPE svg PUBLIC "-//W3C//DTD SVG 1.1//EN" "http://www.w3.org/Graphics/SVG/1.1/DTD/svg11.dtd">
<!-- Creator: CorelDRAW 2019 (64-Bit) -->
<svg xmlns="http://www.w3.org/2000/svg" xml:space="preserve" width="27px" height="27px" version="1.1" style="shape-rendering:geometricPrecision; text-rendering:geometricPrecision; image-rendering:optimizeQuality; fill-rule:evenodd; clip-rule:evenodd"
viewBox="0 0 27 27"
 xmlns:xlink="http://www.w3.org/1999/xlink">
 <defs>
  <style type="text/css">
   <![CDATA[
    .fil0 {fill:#C58E4C}
   ]]>
  </style>
 </defs>
 <g id="Слой_x0020_1">
  <metadata id="CorelCorpID_0Corel-Layer"/>
  <g id="XMLID_138_">
   <path id="XMLID_142_" class="fil0" d="M25.79 5.15c-0.34,-0.88 -0.8,-1.64 -1.55,-2.39 -0.75,-0.75 -1.51,-1.21 -2.39,-1.55 -0.86,-0.33 -1.85,-0.56 -3.28,-0.63 -1.44,-0.06 -1.9,-0.08 -5.57,-0.08 -3.67,0 -4.13,0.01 -5.57,0.08 -1.44,0.07 -2.42,0.3 -3.28,0.63 -0.88,0.34 -1.63,0.8 -2.39,1.55 -0.75,0.75 -1.21,1.51 -1.55,2.39 -0.33,0.86 -0.56,1.85 -0.63,3.28 -0.06,1.44 -0.08,1.9 -0.08,5.57 0,3.67 0.01,4.13 0.08,5.57 0.07,1.44 0.3,2.42 0.63,3.28 0.34,0.88 0.8,1.63 1.55,2.39 0.76,0.75 1.51,1.21 2.39,1.55 0.86,0.33 1.85,0.56 3.28,0.63 1.44,0.06 1.9,0.08 5.57,0.08 3.67,0 4.13,-0.01 5.57,-0.08 1.44,-0.07 2.42,-0.3 3.28,-0.63 0.88,-0.34 1.64,-0.8 2.39,-1.55 0.75,-0.76 1.21,-1.51 1.55,-2.39 0.33,-0.86 0.56,-1.85 0.63,-3.28 0.06,-1.44 0.08,-1.9 0.08,-5.57 0,-3.67 -0.01,-4.13 -0.08,-5.57 -0.07,-1.44 -0.3,-2.42 -0.63,-3.28zm-1.8 14.31c-0.07,1.31 -0.29,2.03 -0.47,2.5 -0.24,0.63 -0.55,1.08 -1.02,1.55 -0.47,0.47 -0.91,0.77 -1.55,1.02 -0.48,0.18 -1.19,0.4 -2.5,0.47 -1.43,0.06 -1.85,0.08 -5.46,0.08 -3.61,0 -4.04,-0.01 -5.46,-0.08 -1.31,-0.07 -2.03,-0.29 -2.5,-0.47 -0.63,-0.24 -1.09,-0.55 -1.56,-1.02 -0.46,-0.47 -0.76,-0.91 -1.01,-1.55 -0.18,-0.48 -0.4,-1.19 -0.47,-2.5 -0.06,-1.43 -0.08,-1.86 -0.08,-5.46 0,-3.6 0.01,-4.04 0.08,-5.46 0.07,-1.31 0.29,-2.03 0.47,-2.5 0.24,-0.63 0.55,-1.09 1.01,-1.56 0.47,-0.46 0.92,-0.76 1.56,-1.01 0.48,-0.19 1.19,-0.4 2.5,-0.47 1.43,-0.06 1.86,-0.08 5.46,-0.08 3.6,0 4.04,0.01 5.46,0.08 1.31,0.07 2.03,0.28 2.5,0.47 0.63,0.24 1.08,0.55 1.55,1.01 0.47,0.47 0.77,0.92 1.02,1.56 0.18,0.48 0.4,1.19 0.47,2.5 0.06,1.43 0.08,1.86 0.08,5.46 0,3.6 -0.02,4.04 -0.08,5.46z"/>
   <path id="XMLID_145_" class="fil0" d="M12.99 7.06c-3.83,0 -6.94,3.11 -6.94,6.94 0,3.83 3.11,6.94 6.94,6.94 3.83,0 6.94,-3.11 6.94,-6.94 0,-3.83 -3.11,-6.94 -6.94,-6.94zm0 11.45c-2.48,0 -4.51,-2.02 -4.51,-4.51 0,-2.48 2.02,-4.51 4.51,-4.51 2.49,0 4.51,2.02 4.51,4.51 0,2.48 -2.03,4.51 -4.51,4.51z"/>
   <circle id="XMLID_143_" class="fil0" cx="20.2" cy="6.79" r="1.62"/>
  </g>
 </g>
</svg>
