<?xml version="1.0" encoding="UTF-8"?>
<!DOCTYPE svg PUBLIC "-//W3C//DTD SVG 1.1//EN" "http://www.w3.org/Graphics/SVG/1.1/DTD/svg11.dtd">
<!-- Creator: CorelDRAW 2019 (64-Bit) -->
<svg xmlns="http://www.w3.org/2000/svg" xml:space="preserve" width="41px" height="48px" version="1.1" style="shape-rendering:geometricPrecision; text-rendering:geometricPrecision; image-rendering:optimizeQuality; fill-rule:evenodd; clip-rule:evenodd"
viewBox="0 0 41 48"
 xmlns:xlink="http://www.w3.org/1999/xlink">
 <defs>
  <style type="text/css">
   <![CDATA[
    .fil0 {fill:#C58E4C;fill-rule:nonzero}
   ]]>
  </style>
 </defs>
 <g id="Слой_x0020_1">
  <metadata id="CorelCorpID_0Corel-Layer"/>
  <path class="fil0" d="M3.02 12.67l5.1 0c-0.59,2.78 -0.81,5.67 -0.81,8.45 0,0.83 0.67,1.5 1.49,1.5 0.83,0 1.5,-0.67 1.5,-1.5 0,-2.77 0.23,-5.68 0.88,-8.45l17.43 0c0.64,2.77 0.87,5.68 0.87,8.45 0,0.83 0.67,1.5 1.5,1.5 0.83,0 1.5,-0.67 1.5,-1.5 0,-2.78 -0.23,-5.67 -0.82,-8.45l5.32 0c0.41,0 0.73,0.32 0.75,0.72l2.77 33.8 0 0c0.03,0.41 -0.27,0.78 -0.69,0.81 -0.02,0 -0.04,0 -0.06,0l-39.5 0c-0.42,0 -0.75,-0.33 -0.75,-0.75 0,-0.03 0,-0.06 0.01,-0.09l2.76 -33.8 0.75 0.06 -0.75 -0.06c0.03,-0.39 0.36,-0.69 0.75,-0.69l0 0zm5.04 8.45c0,0.42 0.33,0.75 0.74,0.75 0.42,0 0.75,-0.33 0.75,-0.75 0,-9.51 2.74,-15.56 6.25,-18.17 1.3,-0.97 2.7,-1.45 4.09,-1.45 1.4,0 2.8,0.48 4.09,1.45 3.51,2.61 6.25,8.66 6.25,18.17 0,0.42 0.34,0.75 0.75,0.75 0.41,0 0.75,-0.33 0.75,-0.75 0,-10.04 -3.01,-16.51 -6.86,-19.37 -1.56,-1.17 -3.27,-1.75 -4.98,-1.75 -1.71,0 -3.41,0.58 -4.98,1.75 -3.85,2.86 -6.85,9.33 -6.85,19.37l0 0z"/>
 </g>
</svg>
