<?xml version="1.0" encoding="UTF-8"?>
<!DOCTYPE svg PUBLIC "-//W3C//DTD SVG 1.1//EN" "http://www.w3.org/Graphics/SVG/1.1/DTD/svg11.dtd">
<!-- Creator: CorelDRAW 2019 (64-Bit) -->
<svg xmlns="http://www.w3.org/2000/svg" xml:space="preserve" width="73px" height="73px" version="1.1" style="shape-rendering:geometricPrecision; text-rendering:geometricPrecision; image-rendering:optimizeQuality; fill-rule:evenodd; clip-rule:evenodd"
viewBox="0 0 73 73"
 xmlns:xlink="http://www.w3.org/1999/xlink"
 enable-background="new 0 0 512 512">
 <defs>
  <style type="text/css">
   <![CDATA[
    .fil0 {fill:#C58E4C}
    .fil1 {fill:#FEFEFE;fill-rule:nonzero}
   ]]>
  </style>
 </defs>
 <g id="Слой_x0020_1">
  <metadata id="CorelCorpID_0Corel-Layer"/>
  <path class="fil0" d="M67.29 28.6c-0.25,-0.9 0.08,-2.32 0.39,-3.67 0.47,-2.03 1,-4.33 -0.08,-6.18 -1.09,-1.89 -3.37,-2.59 -5.38,-3.18 -1.31,-0.41 -2.69,-0.82 -3.32,-1.46 -0.64,-0.64 -1.07,-2.01 -1.46,-3.33 -0.61,-2.01 -1.29,-4.29 -3.18,-5.37 -0.74,-0.44 -1.6,-0.64 -2.61,-0.64 -1.16,0 -2.4,0.29 -3.56,0.55 -1.07,0.25 -2.08,0.48 -2.94,0.48 -0.29,0 -0.53,-0.03 -0.76,-0.09 -0.84,-0.22 -1.87,-1.19 -2.85,-2.11 -1.54,-1.46 -3.3,-3.1 -5.54,-3.1 -2.24,0 -3.98,1.64 -5.54,3.1 -0.98,0.92 -2.01,1.89 -2.85,2.11 -0.21,0.06 -0.47,0.09 -0.76,0.09 -0.84,0 -1.87,-0.23 -2.93,-0.48 -1.19,-0.26 -2.4,-0.55 -3.57,-0.55 -1.03,0 -1.87,0.2 -2.61,0.64 -1.89,1.08 -2.59,3.36 -3.18,5.37 -0.41,1.32 -0.82,2.69 -1.46,3.33 -0.63,0.64 -2.01,1.07 -3.32,1.46 -2.01,0.61 -4.29,1.29 -5.38,3.18 -1.08,1.87 -0.55,4.17 -0.08,6.18 0.31,1.35 0.64,2.77 0.39,3.67 -0.22,0.85 -1.19,1.87 -2.11,2.86 -1.46,1.54 -3.1,3.3 -3.1,5.54 0,2.24 1.64,3.98 3.1,5.54 0.92,0.99 1.89,2.01 2.11,2.86 0.25,0.9 -0.08,2.32 -0.39,3.67 -0.47,2.03 -1,4.33 0.08,6.18 1.09,1.89 3.37,2.59 5.38,3.18 1.31,0.41 2.69,0.82 3.32,1.46 0.64,0.64 1.07,2.01 1.46,3.33 0.61,2.01 1.29,4.29 3.18,5.37 0.74,0.43 1.6,0.64 2.61,0.64 1.17,0 2.4,-0.29 3.57,-0.55 1.06,-0.25 2.07,-0.48 2.93,-0.48 0.29,0 0.53,0.02 0.76,0.09 0.84,0.22 1.87,1.19 2.85,2.11 1.54,1.46 3.3,3.1 5.54,3.1 2.24,0 3.98,-1.64 5.54,-3.1 0.98,-0.92 2.01,-1.89 2.85,-2.11 0.21,-0.07 0.47,-0.09 0.76,-0.09 0.84,0 1.87,0.23 2.94,0.48 1.18,0.26 2.4,0.55 3.56,0.55 1.03,0 1.87,-0.21 2.61,-0.64 1.89,-1.08 2.59,-3.36 3.18,-5.37 0.41,-1.32 0.82,-2.69 1.46,-3.33 0.63,-0.64 2.01,-1.07 3.32,-1.46 2.01,-0.61 4.29,-1.29 5.38,-3.18 1.08,-1.87 0.55,-4.17 0.08,-6.18 -0.31,-1.35 -0.64,-2.77 -0.39,-3.67 0.22,-0.85 1.19,-1.87 2.11,-2.86 1.46,-1.54 3.1,-3.3 3.1,-5.54 0,-2.24 -1.64,-3.98 -3.1,-5.54 -0.92,-0.99 -1.89,-2.01 -2.11,-2.86z"/>
  <path class="fil1" d="M27.64 42.91l-1.56 0 -6.47 -9.92 -0.06 0c0.08,1.16 0.13,2.23 0.13,3.2l0 6.72 -1.27 0 0 -11.82 1.55 0 6.45 9.88 0.06 0c-0.01,-0.14 -0.03,-0.61 -0.07,-1.4 -0.04,-0.79 -0.05,-1.36 -0.04,-1.7l0 -6.78 1.28 0 0 11.82z"/>
  <polygon id="1" class="fil1" points="37.49,42.91 30.89,42.91 30.89,31.09 37.49,31.09 37.49,32.31 32.27,32.31 32.27,36.12 37.17,36.12 37.17,37.33 32.27,37.33 32.27,41.69 37.49,41.69 "/>
  <path id="2" class="fil1" d="M50.43 42.91l-1.36 0 -2.38 -7.92c-0.12,-0.35 -0.24,-0.79 -0.38,-1.32 -0.14,-0.54 -0.22,-0.86 -0.22,-0.97 -0.12,0.72 -0.31,1.49 -0.57,2.34l-2.31 7.87 -1.36 0 -3.15 -11.82 1.46 0 1.87 7.3c0.25,1.03 0.45,1.95 0.56,2.78 0.15,-0.98 0.36,-1.95 0.65,-2.89l2.12 -7.19 1.46 0 2.22 7.25c0.26,0.84 0.48,1.78 0.66,2.83 0.1,-0.76 0.29,-1.69 0.58,-2.79l1.86 -7.29 1.46 0 -3.17 11.82z"/>
 </g>
</svg>
